<mxfile host="app.diagrams.net" modified="2023-06-27T17:47:15.267Z" agent="Mozilla/5.0 (Windows NT 10.0; Win64; x64) AppleWebKit/537.36 (KHTML, like Gecko) Chrome/114.0.0.0 Safari/537.36" etag="HdRr7Q1GoAE9I-0YQdII" version="21.5.1" type="google">
  <diagram name="Página-1" id="jEtDhWnEMNvqd0CnpNyU">
    <mxGraphModel grid="1" page="1" gridSize="10" guides="1" tooltips="1" connect="1" arrows="1" fold="1" pageScale="1" pageWidth="827" pageHeight="1169" math="0" shadow="0">
      <root>
        <mxCell id="0" />
        <mxCell id="1" parent="0" />
        <mxCell id="PtUjipvyBBcX_nBn7tfD-1" value="&lt;font style=&quot;vertical-align: inherit;&quot;&gt;&lt;font style=&quot;vertical-align: inherit;&quot;&gt;Funcionarios&lt;/font&gt;&lt;/font&gt;" style="rounded=0;whiteSpace=wrap;html=1;" vertex="1" parent="1">
          <mxGeometry x="81" y="70" width="270" height="115" as="geometry" />
        </mxCell>
        <mxCell id="PtUjipvyBBcX_nBn7tfD-3" value="" style="endArrow=none;html=1;rounded=0;exitX=0.5;exitY=0;exitDx=0;exitDy=0;entryX=0;entryY=1;entryDx=0;entryDy=0;" edge="1" parent="1" target="PtUjipvyBBcX_nBn7tfD-1">
          <mxGeometry width="50" height="50" relative="1" as="geometry">
            <mxPoint x="86" y="240" as="sourcePoint" />
            <mxPoint x="446" y="300" as="targetPoint" />
          </mxGeometry>
        </mxCell>
        <mxCell id="PtUjipvyBBcX_nBn7tfD-6" value="" style="endArrow=none;html=1;rounded=0;entryX=0.75;entryY=1;entryDx=0;entryDy=0;exitX=0.456;exitY=-0.183;exitDx=0;exitDy=0;exitPerimeter=0;" edge="1" parent="1" source="PtUjipvyBBcX_nBn7tfD-20" target="PtUjipvyBBcX_nBn7tfD-1">
          <mxGeometry width="50" height="50" relative="1" as="geometry">
            <mxPoint x="216" y="240" as="sourcePoint" />
            <mxPoint x="446" y="300" as="targetPoint" />
          </mxGeometry>
        </mxCell>
        <mxCell id="PtUjipvyBBcX_nBn7tfD-13" value="" style="endArrow=none;html=1;rounded=0;exitX=0.5;exitY=0;exitDx=0;exitDy=0;" edge="1" parent="1" target="PtUjipvyBBcX_nBn7tfD-26">
          <mxGeometry width="50" height="50" relative="1" as="geometry">
            <mxPoint x="636" y="370" as="sourcePoint" />
            <mxPoint x="466" y="250" as="targetPoint" />
          </mxGeometry>
        </mxCell>
        <mxCell id="PtUjipvyBBcX_nBn7tfD-14" value="" style="endArrow=none;html=1;rounded=0;entryX=1.029;entryY=0.025;entryDx=0;entryDy=0;exitX=0;exitY=1;exitDx=0;exitDy=0;entryPerimeter=0;" edge="1" parent="1" target="PtUjipvyBBcX_nBn7tfD-26">
          <mxGeometry width="50" height="50" relative="1" as="geometry">
            <mxPoint x="686" y="90" as="sourcePoint" />
            <mxPoint x="462.5" y="200" as="targetPoint" />
          </mxGeometry>
        </mxCell>
        <mxCell id="PtUjipvyBBcX_nBn7tfD-15" value="" style="endArrow=none;html=1;rounded=0;entryX=0;entryY=0.5;entryDx=0;entryDy=0;exitX=1.064;exitY=0.233;exitDx=0;exitDy=0;exitPerimeter=0;" edge="1" parent="1" source="PtUjipvyBBcX_nBn7tfD-26">
          <mxGeometry width="50" height="50" relative="1" as="geometry">
            <mxPoint x="485" y="220" as="sourcePoint" />
            <mxPoint x="696" y="195" as="targetPoint" />
          </mxGeometry>
        </mxCell>
        <mxCell id="PtUjipvyBBcX_nBn7tfD-16" value="" style="endArrow=none;html=1;rounded=0;exitX=0;exitY=0.75;exitDx=0;exitDy=0;" edge="1" parent="1" target="PtUjipvyBBcX_nBn7tfD-26">
          <mxGeometry width="50" height="50" relative="1" as="geometry">
            <mxPoint x="691" y="317.5" as="sourcePoint" />
            <mxPoint x="485" y="240" as="targetPoint" />
          </mxGeometry>
        </mxCell>
        <mxCell id="PtUjipvyBBcX_nBn7tfD-18" value="" style="endArrow=none;html=1;rounded=0;exitX=1;exitY=0;exitDx=0;exitDy=0;entryX=0.5;entryY=1;entryDx=0;entryDy=0;" edge="1" parent="1" source="PtUjipvyBBcX_nBn7tfD-1">
          <mxGeometry width="50" height="50" relative="1" as="geometry">
            <mxPoint x="396" y="350" as="sourcePoint" />
            <mxPoint x="476" y="30" as="targetPoint" />
          </mxGeometry>
        </mxCell>
        <mxCell id="PtUjipvyBBcX_nBn7tfD-19" value="Nome" style="text;html=1;align=center;verticalAlign=middle;resizable=0;points=[];autosize=1;strokeColor=none;fillColor=none;" vertex="1" parent="1">
          <mxGeometry x="56" y="258" width="60" height="30" as="geometry" />
        </mxCell>
        <mxCell id="PtUjipvyBBcX_nBn7tfD-28" value="" style="edgeStyle=orthogonalEdgeStyle;rounded=0;orthogonalLoop=1;jettySize=auto;html=1;" edge="1" parent="1" source="PtUjipvyBBcX_nBn7tfD-20" target="PtUjipvyBBcX_nBn7tfD-1">
          <mxGeometry relative="1" as="geometry" />
        </mxCell>
        <mxCell id="PtUjipvyBBcX_nBn7tfD-20" value="&lt;u&gt;RG&lt;/u&gt;" style="text;html=1;align=center;verticalAlign=middle;resizable=0;points=[];autosize=1;strokeColor=none;fillColor=none;" vertex="1" parent="1">
          <mxGeometry x="196" y="258" width="40" height="30" as="geometry" />
        </mxCell>
        <mxCell id="PtUjipvyBBcX_nBn7tfD-21" value="bairro" style="text;html=1;align=center;verticalAlign=middle;resizable=0;points=[];autosize=1;strokeColor=none;fillColor=none;" vertex="1" parent="1">
          <mxGeometry x="636" y="378" width="50" height="30" as="geometry" />
        </mxCell>
        <mxCell id="PtUjipvyBBcX_nBn7tfD-22" value="* telefone" style="text;html=1;align=center;verticalAlign=middle;resizable=0;points=[];autosize=1;strokeColor=none;fillColor=none;" vertex="1" parent="1">
          <mxGeometry x="476" width="70" height="30" as="geometry" />
        </mxCell>
        <mxCell id="PtUjipvyBBcX_nBn7tfD-23" value="logradouro" style="text;html=1;align=center;verticalAlign=middle;resizable=0;points=[];autosize=1;strokeColor=none;fillColor=none;" vertex="1" parent="1">
          <mxGeometry x="691" y="70" width="80" height="30" as="geometry" />
        </mxCell>
        <mxCell id="PtUjipvyBBcX_nBn7tfD-24" value="Numero" style="text;html=1;align=center;verticalAlign=middle;resizable=0;points=[];autosize=1;strokeColor=none;fillColor=none;" vertex="1" parent="1">
          <mxGeometry x="691" y="188" width="70" height="30" as="geometry" />
        </mxCell>
        <mxCell id="PtUjipvyBBcX_nBn7tfD-25" value="Cep" style="text;html=1;align=center;verticalAlign=middle;resizable=0;points=[];autosize=1;strokeColor=none;fillColor=none;" vertex="1" parent="1">
          <mxGeometry x="701" y="308" width="50" height="30" as="geometry" />
        </mxCell>
        <mxCell id="PtUjipvyBBcX_nBn7tfD-26" value="endereço&lt;br&gt;" style="text;html=1;align=center;verticalAlign=middle;resizable=0;points=[];autosize=1;strokeColor=none;fillColor=none;" vertex="1" parent="1">
          <mxGeometry x="391" y="218" width="70" height="30" as="geometry" />
        </mxCell>
        <mxCell id="PtUjipvyBBcX_nBn7tfD-27" value="" style="endArrow=none;html=1;rounded=0;entryX=1;entryY=1;entryDx=0;entryDy=0;" edge="1" parent="1" source="PtUjipvyBBcX_nBn7tfD-26" target="PtUjipvyBBcX_nBn7tfD-1">
          <mxGeometry width="50" height="50" relative="1" as="geometry">
            <mxPoint x="396" y="350" as="sourcePoint" />
            <mxPoint x="446" y="300" as="targetPoint" />
          </mxGeometry>
        </mxCell>
        <mxCell id="PtUjipvyBBcX_nBn7tfD-29" value="" style="endArrow=none;html=1;rounded=0;exitX=0.5;exitY=0;exitDx=0;exitDy=0;entryX=1.104;entryY=0.917;entryDx=0;entryDy=0;entryPerimeter=0;" edge="1" parent="1" target="PtUjipvyBBcX_nBn7tfD-37">
          <mxGeometry width="50" height="50" relative="1" as="geometry">
            <mxPoint x="824" y="890" as="sourcePoint" />
            <mxPoint x="637" y="768" as="targetPoint" />
          </mxGeometry>
        </mxCell>
        <mxCell id="PtUjipvyBBcX_nBn7tfD-30" value="" style="endArrow=none;html=1;rounded=0;entryX=1.068;entryY=0.917;entryDx=0;entryDy=0;exitX=0;exitY=1;exitDx=0;exitDy=0;entryPerimeter=0;" edge="1" parent="1" target="PtUjipvyBBcX_nBn7tfD-37">
          <mxGeometry width="50" height="50" relative="1" as="geometry">
            <mxPoint x="874" y="610" as="sourcePoint" />
            <mxPoint x="651" y="739" as="targetPoint" />
          </mxGeometry>
        </mxCell>
        <mxCell id="PtUjipvyBBcX_nBn7tfD-31" value="" style="endArrow=none;html=1;rounded=0;entryX=0;entryY=0.5;entryDx=0;entryDy=0;exitX=1.032;exitY=0.917;exitDx=0;exitDy=0;exitPerimeter=0;" edge="1" parent="1" source="PtUjipvyBBcX_nBn7tfD-37">
          <mxGeometry width="50" height="50" relative="1" as="geometry">
            <mxPoint x="653" y="745" as="sourcePoint" />
            <mxPoint x="884" y="715" as="targetPoint" />
          </mxGeometry>
        </mxCell>
        <mxCell id="PtUjipvyBBcX_nBn7tfD-32" value="" style="endArrow=none;html=1;rounded=0;exitX=0;exitY=0.75;exitDx=0;exitDy=0;" edge="1" parent="1" target="PtUjipvyBBcX_nBn7tfD-37">
          <mxGeometry width="50" height="50" relative="1" as="geometry">
            <mxPoint x="879" y="837.5" as="sourcePoint" />
            <mxPoint x="649" y="764" as="targetPoint" />
          </mxGeometry>
        </mxCell>
        <mxCell id="PtUjipvyBBcX_nBn7tfD-33" value="bairro" style="text;html=1;align=center;verticalAlign=middle;resizable=0;points=[];autosize=1;strokeColor=none;fillColor=none;" vertex="1" parent="1">
          <mxGeometry x="830" y="898" width="50" height="30" as="geometry" />
        </mxCell>
        <mxCell id="PtUjipvyBBcX_nBn7tfD-34" value="logradouro" style="text;html=1;align=center;verticalAlign=middle;resizable=0;points=[];autosize=1;strokeColor=none;fillColor=none;" vertex="1" parent="1">
          <mxGeometry x="872" y="590" width="80" height="30" as="geometry" />
        </mxCell>
        <mxCell id="PtUjipvyBBcX_nBn7tfD-35" value="Numero" style="text;html=1;align=center;verticalAlign=middle;resizable=0;points=[];autosize=1;strokeColor=none;fillColor=none;" vertex="1" parent="1">
          <mxGeometry x="886" y="700" width="70" height="30" as="geometry" />
        </mxCell>
        <mxCell id="PtUjipvyBBcX_nBn7tfD-36" value="Cep" style="text;html=1;align=center;verticalAlign=middle;resizable=0;points=[];autosize=1;strokeColor=none;fillColor=none;" vertex="1" parent="1">
          <mxGeometry x="880" y="830" width="50" height="30" as="geometry" />
        </mxCell>
        <mxCell id="PtUjipvyBBcX_nBn7tfD-37" value="endereço&lt;br&gt;" style="text;html=1;align=center;verticalAlign=middle;resizable=0;points=[];autosize=1;strokeColor=none;fillColor=none;" vertex="1" parent="1">
          <mxGeometry x="576" y="740" width="70" height="30" as="geometry" />
        </mxCell>
        <mxCell id="PtUjipvyBBcX_nBn7tfD-38" value="Funcionarios" style="rounded=0;whiteSpace=wrap;html=1;" vertex="1" parent="1">
          <mxGeometry x="136" y="695" width="310" height="120" as="geometry" />
        </mxCell>
        <mxCell id="PtUjipvyBBcX_nBn7tfD-39" value="&lt;u&gt;Numero de Carteira Profissional&lt;/u&gt;" style="text;html=1;align=center;verticalAlign=middle;resizable=0;points=[];autosize=1;strokeColor=none;fillColor=none;" vertex="1" parent="1">
          <mxGeometry x="6" y="584" width="190" height="30" as="geometry" />
        </mxCell>
        <mxCell id="PtUjipvyBBcX_nBn7tfD-40" value="Cargo" style="text;html=1;align=center;verticalAlign=middle;resizable=0;points=[];autosize=1;strokeColor=none;fillColor=none;" vertex="1" parent="1">
          <mxGeometry x="446" y="868" width="60" height="30" as="geometry" />
        </mxCell>
        <mxCell id="PtUjipvyBBcX_nBn7tfD-41" value="* Telefones" style="text;html=1;align=center;verticalAlign=middle;resizable=0;points=[];autosize=1;strokeColor=none;fillColor=none;" vertex="1" parent="1">
          <mxGeometry x="436" y="590" width="80" height="30" as="geometry" />
        </mxCell>
        <mxCell id="PtUjipvyBBcX_nBn7tfD-43" value="" style="endArrow=none;html=1;rounded=0;entryX=0.652;entryY=1;entryDx=0;entryDy=0;entryPerimeter=0;" edge="1" parent="1" source="PtUjipvyBBcX_nBn7tfD-40" target="PtUjipvyBBcX_nBn7tfD-38">
          <mxGeometry width="50" height="50" relative="1" as="geometry">
            <mxPoint x="326" y="870" as="sourcePoint" />
            <mxPoint x="376" y="820" as="targetPoint" />
          </mxGeometry>
        </mxCell>
        <mxCell id="PtUjipvyBBcX_nBn7tfD-44" value="" style="endArrow=none;html=1;rounded=0;entryX=0.416;entryY=0.958;entryDx=0;entryDy=0;entryPerimeter=0;" edge="1" parent="1" source="PtUjipvyBBcX_nBn7tfD-38" target="PtUjipvyBBcX_nBn7tfD-41">
          <mxGeometry width="50" height="50" relative="1" as="geometry">
            <mxPoint x="326" y="870" as="sourcePoint" />
            <mxPoint x="376" y="820" as="targetPoint" />
          </mxGeometry>
        </mxCell>
        <mxCell id="PtUjipvyBBcX_nBn7tfD-45" value="" style="endArrow=none;html=1;rounded=0;entryX=0.029;entryY=0.458;entryDx=0;entryDy=0;entryPerimeter=0;exitX=1;exitY=0.5;exitDx=0;exitDy=0;" edge="1" parent="1" source="PtUjipvyBBcX_nBn7tfD-38" target="PtUjipvyBBcX_nBn7tfD-37">
          <mxGeometry width="50" height="50" relative="1" as="geometry">
            <mxPoint x="326" y="870" as="sourcePoint" />
            <mxPoint x="376" y="820" as="targetPoint" />
          </mxGeometry>
        </mxCell>
        <mxCell id="PtUjipvyBBcX_nBn7tfD-46" value="nome" style="text;html=1;align=center;verticalAlign=middle;resizable=0;points=[];autosize=1;strokeColor=none;fillColor=none;" vertex="1" parent="1">
          <mxGeometry x="81" y="878" width="50" height="30" as="geometry" />
        </mxCell>
        <mxCell id="PtUjipvyBBcX_nBn7tfD-47" value="" style="endArrow=none;html=1;rounded=0;exitX=0.365;exitY=-0.017;exitDx=0;exitDy=0;exitPerimeter=0;" edge="1" parent="1" source="PtUjipvyBBcX_nBn7tfD-46">
          <mxGeometry width="50" height="50" relative="1" as="geometry">
            <mxPoint x="326" y="870" as="sourcePoint" />
            <mxPoint x="256" y="810" as="targetPoint" />
          </mxGeometry>
        </mxCell>
        <mxCell id="PtUjipvyBBcX_nBn7tfD-48" value="" style="endArrow=none;html=1;rounded=0;exitX=0.643;exitY=1.033;exitDx=0;exitDy=0;exitPerimeter=0;entryX=0.25;entryY=0;entryDx=0;entryDy=0;" edge="1" parent="1" source="PtUjipvyBBcX_nBn7tfD-39" target="PtUjipvyBBcX_nBn7tfD-38">
          <mxGeometry width="50" height="50" relative="1" as="geometry">
            <mxPoint x="90.48999999999978" y="631.26" as="sourcePoint" />
            <mxPoint x="376" y="820" as="targetPoint" />
          </mxGeometry>
        </mxCell>
      </root>
    </mxGraphModel>
  </diagram>
</mxfile>
